HIERARCHY
ROOT Hips
{
	OFFSET 0.000000 0.000000 0.000000
	CHANNELS 6 Xposition Yposition Zposition Zrotation Yrotation Xrotation 
	JOINT LHipJoint
	{
		OFFSET 0.000000 0.000000 0.000000
		CHANNELS 3 Zrotation Yrotation Xrotation
		JOINT LeftUpLeg
		{
			OFFSET 1.363060 -1.794630 0.839290
			CHANNELS 3 Zrotation Yrotation Xrotation
			JOINT LeftLeg
			{
				OFFSET 2.448110 -6.726130 0.000000
				CHANNELS 3 Zrotation Yrotation Xrotation
				JOINT LeftFoot
				{
					OFFSET 2.562200 -7.039590 0.000000
					CHANNELS 3 Zrotation Yrotation Xrotation
					JOINT LeftToeBase
					{
						OFFSET 0.157640 -0.433110 2.322550
						CHANNELS 3 Zrotation Yrotation Xrotation
						End Site
						{
							OFFSET 0.000000 0.000000 0.000000
						}
					}
				}
			}
		}
	}
	JOINT RHipJoint
	{
		OFFSET 0.000000 0.000000 0.000000
		CHANNELS 3 Zrotation Yrotation Xrotation
		JOINT RightUpLeg
		{
			OFFSET -1.305520 -1.794630 0.839290
			CHANNELS 3 Zrotation Yrotation Xrotation
			JOINT RightLeg
			{
				OFFSET -2.542530 -6.985550 0.000000
				CHANNELS 3 Zrotation Yrotation Xrotation
				JOINT RightFoot
				{
					OFFSET -2.568260 -7.056230 0.000000
					CHANNELS 3 Zrotation Yrotation Xrotation
					JOINT RightToeBase
					{
						OFFSET -0.164730 -0.452590 2.363150
						CHANNELS 3 Zrotation Yrotation Xrotation
						End Site
						{
							OFFSET 0.000000 0.000000 0.000000
						}
					}
				}
			}
		}
	}
	JOINT LowerBack
	{
		OFFSET 0.000000 0.000000 0.000000
		CHANNELS 3 Zrotation Yrotation Xrotation
		JOINT Spine
		{
			OFFSET 0.028270 2.035590 -0.193380
			CHANNELS 3 Zrotation Yrotation Xrotation
			JOINT Spine1
			{
				OFFSET 0.056720 2.048850 -0.042750
				CHANNELS 3 Zrotation Yrotation Xrotation
				JOINT Neck
				{
					OFFSET 0.000000 0.000000 0.000000
					CHANNELS 3 Zrotation Yrotation Xrotation
					JOINT Neck1
					{
						OFFSET -0.054170 1.746240 0.172020
						CHANNELS 3 Zrotation Yrotation Xrotation
						JOINT Head
						{
							OFFSET 0.104070 1.761360 -0.123970
							CHANNELS 3 Zrotation Yrotation Xrotation
							End Site
							{
								OFFSET 0.000000 0.000000 0.000000
							}
						}
					}
				}
				JOINT LeftShoulder
				{
					OFFSET 0.000000 0.000000 0.000000
					CHANNELS 3 Zrotation Yrotation Xrotation
					JOINT LeftArm
					{
						OFFSET 3.362410 1.200890 -0.311210
						CHANNELS 3 Zrotation Yrotation Xrotation
						JOINT LeftForeArm
						{
							OFFSET 4.983000 -0.000000 -0.000000
							CHANNELS 3 Zrotation Yrotation Xrotation
							JOINT LeftHand
							{
								OFFSET 3.483560 -0.000000 -0.000000
								CHANNELS 3 Zrotation Yrotation Xrotation
								JOINT LeftFingerBase
								{
									OFFSET 0.000000 0.000000 0.000000
									CHANNELS 3 Zrotation Yrotation Xrotation
									JOINT LeftHandIndex1
									{
										OFFSET 0.715260 -0.000000 -0.000000
										CHANNELS 3 Zrotation Yrotation Xrotation
										End Site
										{
											OFFSET 0.000000 0.000000 0.000000
										}
									}
								}
								JOINT LThumb
								{
									OFFSET 0.000000 0.000000 0.000000
									CHANNELS 3 Zrotation Yrotation Xrotation
									End Site
									{
										OFFSET 0.000000 0.000000 0.000000
									}
								}
							}
						}
					}
				}
				JOINT RightShoulder
				{
					OFFSET 0.000000 0.000000 0.000000
					CHANNELS 3 Zrotation Yrotation Xrotation
					JOINT RightArm
					{
						OFFSET -3.136600 1.374050 -0.404650
						CHANNELS 3 Zrotation Yrotation Xrotation
						JOINT RightForeArm
						{
							OFFSET -5.241900 -0.000000 -0.000000
							CHANNELS 3 Zrotation Yrotation Xrotation
							JOINT RightHand
							{
								OFFSET -3.444170 -0.000000 -0.000000
								CHANNELS 3 Zrotation Yrotation Xrotation
								JOINT RightFingerBase
								{
									OFFSET 0.000000 0.000000 0.000000
									CHANNELS 3 Zrotation Yrotation Xrotation
									JOINT RightHandIndex1
									{
										OFFSET -0.622530 -0.000000 -0.000000
										CHANNELS 3 Zrotation Yrotation Xrotation
										End Site
										{
											OFFSET 0.000000 0.000000 0.000000
										}
									}
								}
								JOINT RThumb
								{
									OFFSET 0.000000 0.000000 0.000000
									CHANNELS 3 Zrotation Yrotation Xrotation
									End Site
									{
										OFFSET 0.000000 0.000000 0.000000
									}
								}
							}
						}
					}
				}
			}
		}
	}
}
MOTION
Frames: 6
Frame Time: 0.008333
3.017771 18.093498 4.720715 -110.694968 -79.647414 119.437527 -1.758871 -2.781034 -2.846675 0.897204 -1.948693 -30.107702 0.726801 8.022095 20.881190 -2.444280 12.490249 7.707077 0.567400 -4.824200 -13.407900 2.492255 1.182450 -0.385136 31.380602 5.996995 0.808224 0.519753 -4.589415 11.503926 0.080005 -2.617496 -1.631162 -0.852100 -5.887200 16.457500 8.703131 0.512881 1.300311 1.557730 0.638305 -4.366939 4.577728 -0.019915 1.695786 -5.833773 -4.161567 -13.788981 4.518776 -5.383539 13.669387 2.296400 -2.768800 9.650400 7.226942 2.216135 0.744319 -101.089503 12.235640 9.644233 5.266774 -23.760542 -1.551160 0.045364 2.755217 42.726411 -7.576759 15.682830 -1.360000 -7.125000 0.000000 0.000000 -29.101600 41.672500 2.641300 -3.336570 -2.873927 -1.909565 80.054094 6.316540 18.112646 -14.015285 27.927773 -3.973981 -0.328017 0.775257 3.269056 -17.359184 -29.912500 8.886600 7.125000 0.000000 0.000000 17.100500 -61.073000 -6.808900 
2.883148 18.075319 4.721321 -110.802312 -79.534953 119.773175 -1.871390 -2.780021 -2.853894 1.498701 -3.041835 -29.341346 0.301078 6.976591 17.746877 -2.723437 13.540580 7.916537 0.538300 -4.701100 -13.058100 2.528266 1.195543 -0.371673 31.417514 5.910786 1.012831 0.515954 -4.594903 11.528733 0.041665 -2.430445 -1.917433 -0.813500 -5.755500 16.076600 8.803069 0.630169 1.097191 1.513657 0.765433 -4.387221 4.405804 0.053993 1.726544 -5.892314 -4.131940 -13.671091 4.464127 -5.334308 13.701780 2.298400 -2.761000 9.628700 7.195505 2.219815 0.740981 -100.929379 12.178310 10.286285 5.505360 -24.036486 -1.590096 0.018419 2.763229 42.181243 -7.633301 15.776146 -1.380900 -7.125000 0.000000 0.000000 -29.179500 41.745600 2.591300 -3.345573 -2.869731 -1.914431 79.816915 6.808108 18.795616 -14.438968 28.483950 -4.183506 -0.325942 0.767078 2.853526 -17.466932 -29.907943 8.947000 7.125000 0.000000 0.000000 16.966100 -61.090900 -6.760800 
2.747312 18.055121 4.722634 -111.051446 -79.423257 120.240224 -1.973861 -2.767410 -2.855747 2.131680 -4.249552 -28.551487 -0.048244 5.963379 14.783956 -2.985862 14.450252 7.849550 0.502300 -4.543400 -12.610600 2.560008 1.208790 -0.361605 31.431920 5.811499 1.207778 0.509183 -4.615068 11.594784 -0.008492 -2.188001 -2.191385 -0.769800 -5.602400 15.635100 8.889221 0.747327 0.901649 1.468829 0.893538 -4.402399 4.238086 0.128518 1.769374 -5.947702 -4.097038 -13.563747 4.409336 -5.277482 13.729738 2.299900 -2.749000 9.606100 7.164688 2.225958 0.737515 -100.764051 12.089112 10.863669 5.746521 -24.314684 -1.633324 -0.000402 2.776345 41.600310 -7.656324 15.957546 -1.402300 -7.125000 0.000000 0.000000 -29.266200 41.889800 2.484700 -3.354919 -2.867415 -1.917933 79.581877 7.322556 19.464031 -14.848063 29.011372 -4.388741 -0.323364 0.759095 2.427585 -17.603652 -29.858367 9.011800 7.125000 0.000000 0.000000 16.765800 -61.073000 -6.671300 
2.610164 18.032801 4.724653 -111.447294 -79.312917 120.841708 -2.059039 -2.745479 -2.853169 2.764990 -5.507976 -27.786791 -0.319789 5.016948 12.075747 -3.226042 15.203775 7.504059 0.462800 -4.363800 -12.102500 2.585759 1.221152 -0.354318 31.424270 5.701277 1.395183 0.499193 -4.651283 11.705700 -0.069309 -1.894922 -2.453009 -0.722000 -5.429700 15.138200 8.957584 0.864835 0.715417 1.423415 1.023868 -4.412674 4.075932 0.204116 1.822837 -5.998575 -4.059279 -13.461122 4.352566 -5.216759 13.753928 2.299500 -2.734700 9.581700 7.135033 2.234099 0.734101 -100.588940 11.973797 11.379855 5.982532 -24.583944 -1.678546 -0.006654 2.780888 41.008477 -7.542647 16.151620 -1.395000 -7.125000 0.000000 0.000000 -29.259100 42.054800 2.351200 -3.364561 -2.866825 -1.920063 79.350103 7.855433 20.113860 -15.241947 29.510473 -4.588949 -0.320741 0.751272 2.006568 -17.734398 -29.776769 9.064700 7.125000 0.000000 0.000000 16.548600 -61.022800 -6.562400 
2.472005 18.008563 4.727380 -111.930508 -79.206794 121.515226 -2.121184 -2.720000 -2.849111 3.357262 -6.720438 -27.112648 -0.517384 4.178275 9.720340 -3.427930 15.768646 6.937756 0.427100 -4.194500 -11.624400 2.604332 1.231658 -0.348361 31.398154 5.573463 1.568960 0.485487 -4.704444 11.864370 -0.139816 -1.554788 -2.705361 -0.672000 -5.242000 14.600100 9.014471 0.976656 0.546629 1.377601 1.149686 -4.418932 3.914723 0.277337 1.881214 -6.044011 -4.016428 -13.367986 4.293263 -5.149384 13.774968 2.297200 -2.716600 9.557100 7.107190 2.243533 0.730200 -100.406306 11.825628 11.817976 6.203804 -24.831762 -1.723381 -0.002746 2.779402 40.432891 -7.331170 16.352868 -1.366000 -7.125000 0.000000 0.000000 -29.183600 42.233400 2.200800 -3.374772 -2.867918 -1.920979 79.126580 8.410898 20.741720 -15.613892 29.973619 -4.780862 -0.317472 0.743649 1.628147 -17.867057 -29.607709 9.095100 7.125000 0.000000 0.000000 16.265500 -60.888600 -6.394700 
2.333645 17.982608 4.730915 -112.428271 -79.112713 122.187189 -2.157874 -2.699086 -2.847471 3.855799 -7.770556 -26.600251 -0.650042 3.492333 7.827147 -3.563393 16.085985 6.264161 0.407800 -4.099700 -11.357400 2.616151 1.239382 -0.341703 31.354773 5.434451 1.729884 0.468039 -4.774189 12.069462 -0.215343 -1.190318 -2.950263 -0.625700 -5.061600 14.084300 9.056292 1.078415 0.404135 1.331925 1.266783 -4.422636 3.757665 0.345764 1.936214 -6.085125 -3.968584 -13.283272 4.234048 -5.075510 13.793973 2.294400 -2.694900 9.533600 7.083078 2.253807 0.725185 -100.218701 11.632058 12.159839 6.391685 -25.034878 -1.763916 0.011312 2.770349 39.901456 -7.023582 16.537301 -1.313000 -7.125000 0.000000 0.000000 -29.031600 42.406700 2.049000 -3.385929 -2.870339 -1.920909 78.912455 8.987903 21.338625 -15.960169 30.396912 -4.962006 -0.313508 0.736277 1.312395 -17.995618 -29.352940 9.099200 7.125000 0.000000 0.000000 15.927200 -60.669600 -6.174600 
